<svg id="Panasonic_logo" xmlns="http://www.w3.org/2000/svg" width="231.482" height="35.377" viewBox="0 0 231.482 35.377">
  <path id="Path_1" data-name="Path 1" d="M16.817,23.9H10.482V15.81H14.6c.779,0,1.443-.019,2.222-.062a3.387,3.387,0,0,0,2.627-1.416,3.167,3.167,0,0,0,.617-1.5,5.45,5.45,0,0,0,.031-1.373A3.476,3.476,0,0,0,16.616,8.3H10.482V34.544H0V0H17.129c.683,0,1.258.012,1.941.05a11.692,11.692,0,0,1,10.22,6.894,11.805,11.805,0,0,1,1.084,6.566A11.211,11.211,0,0,1,21.489,23.4a20.678,20.678,0,0,1-4.668.505" fill="#fff"/>
  <path id="a" d="M102.989,47.276c-.139-2.033-.216-3.754-.258-5.795-.054-2.681-.085-4.938-.1-7.619a15.794,15.794,0,0,0-.532-4.066,6.435,6.435,0,0,0-3.2-4.155A10.428,10.428,0,0,0,95.86,24.5a25.752,25.752,0,0,0-10.289-.2,12.382,12.382,0,0,0-2.785.81,7.415,7.415,0,0,0-4.39,4.807,5.9,5.9,0,0,0-.235,2.546,1.264,1.264,0,0,0,.131.451l8.306.2a3.723,3.723,0,0,1,.224-1.474,2.523,2.523,0,0,1,1.566-1.57,4.849,4.849,0,0,1,3.314-.058,2.268,2.268,0,0,1,1.5,1.524,1.486,1.486,0,0,1-.212,1.323,1.975,1.975,0,0,1-.949.741,6.986,6.986,0,0,1-.714.231,32.6,32.6,0,0,1-3.318.721c-.934.154-1.721.3-2.647.486a29.682,29.682,0,0,0-3.522.918,7.388,7.388,0,0,0-2.855,1.667,6.022,6.022,0,0,0-1.975,3.746,7.587,7.587,0,0,0,.116,2.874,6.867,6.867,0,0,0,4.9,5.212,12,12,0,0,0,8.163-.413,7.793,7.793,0,0,0,3.233-2.361l-.586-4.244a3.588,3.588,0,0,1-1.643,1.4,6.21,6.21,0,0,1-1.968.517,4.405,4.405,0,0,1-1.694-.147,2.4,2.4,0,0,1-1.169-.7,2.087,2.087,0,0,1-.54-1.038,1.651,1.651,0,0,1,.563-1.632,3.237,3.237,0,0,1,1.042-.61q1.37-.507,2.778-.9a21.251,21.251,0,0,0,3.306-1.219,9.423,9.423,0,0,1-.023,2.573,4.108,4.108,0,0,1-.652,1.759l.586,4.244c.181.6.347,1.1.556,1.7a2.393,2.393,0,0,0,.5.841h9.143a3.966,3.966,0,0,1-.637-1.944" transform="translate(-47.25 -14.665)" fill="#fff"/>
  <path id="b" d="M158.329,26.808a15.3,15.3,0,0,1,3.831-2.488,10.015,10.015,0,0,1,7.291-.54,7.955,7.955,0,0,1,5.505,5.378,11.913,11.913,0,0,1,.586,3.792V48.875h-9.8V34.554a4.39,4.39,0,0,0-.2-1.343,2.716,2.716,0,0,0-1.593-1.763,3.7,3.7,0,0,0-4.66,1.543,4.016,4.016,0,0,0-.579,2.133v13.75h-9.49V24.2h8.9l.208,2.608" transform="translate(-91.652 -14.331)" fill="#fff"/>
  <path id="Path_2" data-name="Path 2" d="M102.989,47.276c-.139-2.033-.216-3.754-.258-5.795-.054-2.681-.085-4.938-.1-7.619a15.794,15.794,0,0,0-.532-4.066,6.435,6.435,0,0,0-3.2-4.155A10.428,10.428,0,0,0,95.86,24.5a25.752,25.752,0,0,0-10.289-.2,12.382,12.382,0,0,0-2.785.81,7.415,7.415,0,0,0-4.39,4.807,5.9,5.9,0,0,0-.235,2.546,1.264,1.264,0,0,0,.131.451l8.306.2a3.723,3.723,0,0,1,.224-1.474,2.523,2.523,0,0,1,1.566-1.57,4.849,4.849,0,0,1,3.314-.058,2.268,2.268,0,0,1,1.5,1.524,1.486,1.486,0,0,1-.212,1.323,1.975,1.975,0,0,1-.949.741,6.986,6.986,0,0,1-.714.231,32.6,32.6,0,0,1-3.318.721c-.934.154-1.721.3-2.647.486a29.682,29.682,0,0,0-3.522.918,7.388,7.388,0,0,0-2.855,1.667,6.022,6.022,0,0,0-1.975,3.746,7.587,7.587,0,0,0,.116,2.874,6.867,6.867,0,0,0,4.9,5.212,12,12,0,0,0,8.163-.413,7.793,7.793,0,0,0,3.233-2.361l-.586-4.244a3.588,3.588,0,0,1-1.643,1.4,6.21,6.21,0,0,1-1.968.517,4.405,4.405,0,0,1-1.694-.147,2.4,2.4,0,0,1-1.169-.7,2.087,2.087,0,0,1-.54-1.038,1.651,1.651,0,0,1,.563-1.632,3.237,3.237,0,0,1,1.042-.61q1.37-.507,2.778-.9a21.251,21.251,0,0,0,3.306-1.219,9.423,9.423,0,0,1-.023,2.573,4.108,4.108,0,0,1-.652,1.759l.586,4.244c.181.6.347,1.1.556,1.7a2.393,2.393,0,0,0,.5.841h9.143a3.966,3.966,0,0,1-.637-1.944" transform="translate(8.149 -14.665)" fill="#fff"/>
  <path id="Path_3" data-name="Path 3" d="M303.385,40.005a12.861,12.861,0,0,1,1.975.494,1.582,1.582,0,0,1,1.08,1.208,1.8,1.8,0,0,1-.5,1.7,2.828,2.828,0,0,1-1.64.837,4.719,4.719,0,0,1-2.469-.231,3.333,3.333,0,0,1-1.053-.6,2.658,2.658,0,0,1-.86-1.3,4.013,4.013,0,0,1-.185-1.316H290.7v.525a6.468,6.468,0,0,0,.428,2.369,7.577,7.577,0,0,0,2.014,2.994A9.6,9.6,0,0,0,297.251,49a21.9,21.9,0,0,0,9.784.617,13.515,13.515,0,0,0,4.386-1.427,8.873,8.873,0,0,0,1.7-1.138,7.515,7.515,0,0,0,2.376-8.217,6,6,0,0,0-1.86-2.812,10.4,10.4,0,0,0-4.089-2.226l-.988-.282a43.942,43.942,0,0,0-5.586-1.188c-.532-.077-.98-.162-1.5-.285a3.473,3.473,0,0,1-.667-.231,1.1,1.1,0,0,1-.556-1.458l.042-.085a2.153,2.153,0,0,1,1.323-1.049,4.825,4.825,0,0,1,3,.069,2.241,2.241,0,0,1,1.535,2.249h8.711a8.6,8.6,0,0,0-.532-2.979,5.3,5.3,0,0,0-1.782-2.469,8.464,8.464,0,0,0-2.326-1.327,12.646,12.646,0,0,0-2.523-.7,25.706,25.706,0,0,0-6.2-.347,19.477,19.477,0,0,0-3.526.509,10.542,10.542,0,0,0-4.3,2.064,6.883,6.883,0,0,0-2.18,8.09,6.558,6.558,0,0,0,3.8,3.8,15.047,15.047,0,0,0,2.677.8c1.9.394,3.511.7,5.424,1.026m29.594-16.072a17.9,17.9,0,0,0-5.594,0,12.816,12.816,0,0,0-7.2,3.569,11.736,11.736,0,0,0-3.7,7.7,14.116,14.116,0,0,0,.482,5.308A12.175,12.175,0,0,0,321.5,47.2a11.705,11.705,0,0,0,4.873,2.261,16.9,16.9,0,0,0,3.819.409,16.727,16.727,0,0,0,3.815-.409,11.709,11.709,0,0,0,4.873-2.261l-5.3-5.779a3.715,3.715,0,0,1-4.915,1.863,3.58,3.58,0,0,1-1.863-1.863,8.606,8.606,0,0,1-.7-2.38,13.834,13.834,0,0,1,.1-4.961,6.413,6.413,0,0,1,.972-2.384,3.6,3.6,0,0,1,6.018,0,6.338,6.338,0,0,1,.972,2.384,13.839,13.839,0,0,1,.108,4.961,8.665,8.665,0,0,1-.7,2.38l5.3,5.779a12.183,12.183,0,0,0,4.521-6.693,14.1,14.1,0,0,0,.482-5.309,11.728,11.728,0,0,0-3.7-7.7,12.8,12.8,0,0,0-7.2-3.569" transform="translate(-178.55 -14.531)" fill="#fff"/>
  <path id="Path_4" data-name="Path 4" d="M158.329,26.808a15.3,15.3,0,0,1,3.831-2.488,10.015,10.015,0,0,1,7.291-.54,7.955,7.955,0,0,1,5.505,5.378,11.913,11.913,0,0,1,.586,3.792V48.875h-9.8V34.554a4.39,4.39,0,0,0-.2-1.343,2.716,2.716,0,0,0-1.593-1.763,3.7,3.7,0,0,0-4.66,1.543,4.016,4.016,0,0,0-.579,2.133v13.75h-9.49V24.2h8.9l.208,2.608" transform="translate(17.485 -14.331)" fill="#fff"/>
  <path id="Path_5" data-name="Path 5" d="M505.26,0V6.52h9.224V0Zm0,9.872V34.548h9.224V9.872Zm34,21.473a12.037,12.037,0,0,1-6.628,3.661,16.294,16.294,0,0,1-5.173.251,12.187,12.187,0,0,1-6.342-2.477,13.209,13.209,0,0,1-3.715-4.174,11.5,11.5,0,0,1-1.458-4.082,13.513,13.513,0,0,1,.3-6,12.178,12.178,0,0,1,9.5-8.958,16.355,16.355,0,0,1,7.774.189,10.74,10.74,0,0,1,4.849,2.658,9.78,9.78,0,0,1,2.122,2.782,7.422,7.422,0,0,1,.876,4.012h-8.437a4.121,4.121,0,0,0-1.636-2.724,3.434,3.434,0,0,0-3.962-.193A3.916,3.916,0,0,0,525.6,18.53a11.4,11.4,0,0,0-.108,6.775,5.116,5.116,0,0,0,1.478,2.446,3.522,3.522,0,0,0,3.048.964,2.836,2.836,0,0,0,1.782-.957,3.665,3.665,0,0,0,.926-1.9,12.1,12.1,0,0,0,.174-1.493h8.893a8.924,8.924,0,0,1-2.523,6.983" transform="translate(-310.335)" fill="#fff"/>
</svg>
